{"asset":{"version":"2.0","generator":"VECTARY"},"nodes":[{"translation":[-0.2603919241428375,0,0],"scale":[0.001,0.001,0.001],"rotation":[-0.7071067811865475,0,0,0.7071067811865476],"name":"3D Text - P","mesh":0},{"translation":[-0.23329963898658754,0,0],"scale":[0.001,0.001,0.001],"rotation":[-0.7071067811865475,0,0,0.7071067811865476],"name":"3D Text - r","mesh":1},{"translation":[-0.21493049836158754,0,0],"scale":[0.001,0.001,0.001],"rotation":[-0.7071067811865475,0,0,0.7071067811865476],"name":"3D Text - e","mesh":2},{"translation":[-0.18968391633033752,0,0],"scale":[0.001,0.001,0.001],"rotation":[-0.7071067811865475,0,0,0.7071067811865476],"name":"3D Text - s","mesh":3},{"translation":[-0.16821663117408753,0,0],"scale":[0.001,0.001,0.001],"rotation":[-0.7071067811865475,0,0,0.7071067811865476],"name":"3D Text - s","mesh":4},{"translation":[-0.13505989289283754,0,0],"scale":[0.001,0.001,0.001],"rotation":[-0.7071067811865475,0,0,0.7071067811865476],"name":"3D Text - E","mesh":5},{"translation":[-0.11003303742408753,0,0],"scale":[0.001,0.001,0.001],"rotation":[-0.7071067811865475,0,0,0.7071067811865476],"name":"3D Text - n","mesh":6},{"translation":[-0.08241340851783753,0,0],"scale":[0.001,0.001,0.001],"rotation":[-0.7071067811865475,0,0,0.7071067811865476],"name":"3D Text - t","mesh":7},{"translation":[-0.06652717804908753,0,0],"scale":[0.001,0.001,0.001],"rotation":[-0.7071067811865475,0,0,0.7071067811865476],"name":"3D Text - e","mesh":8},{"translation":[-0.041280596017837526,0,0],"scale":[0.001,0.001,0.001],"rotation":[-0.7071067811865475,0,0,0.7071067811865476],"name":"3D Text - r","mesh":9},{"translation":[-0.011222002267837525,0,0],"scale":[0.001,0.001,0.001],"rotation":[-0.7071067811865475,0,0,0.7071067811865476],"name":"3D Text - O","mesh":10},{"translation":[0.023824384450912475,0,0],"scale":[0.001,0.001,0.001],"rotation":[-0.7071067811865475,0,0,0.7071067811865476],"name":"3D Text - v","mesh":11},{"translation":[0.04636832976341248,0,0],"scale":[0.001,0.001,0.001],"rotation":[-0.7071067811865475,0,0,0.7071067811865476],"name":"3D Text - e","mesh":12},{"translation":[0.07161491179466248,0,0],"scale":[0.001,0.001,0.001],"rotation":[-0.7071067811865475,0,0,0.7071067811865476],"name":"3D Text - r","mesh":13},{"translation":[0.10167350554466248,0,0],"scale":[0.001,0.001,0.001],"rotation":[-0.7071067811865475,0,0,0.7071067811865476],"name":"3D Text - P","mesh":14},{"translation":[0.12876579070091249,0,0],"scale":[0.001,0.001,0.001],"rotation":[-0.7071067811865475,0,0,0.7071067811865476],"name":"3D Text - l","mesh":15},{"translation":[0.1401476266384125,0,0],"scale":[0.001,0.001,0.001],"rotation":[-0.7071067811865475,0,0,0.7071067811865476],"name":"3D Text - a","mesh":16},{"translation":[0.16517448210716248,0,0],"scale":[0.001,0.001,0.001],"rotation":[-0.7071067811865475,0,0,0.7071067811865476],"name":"3D Text - n","mesh":17},{"translation":[0.19279411101341248,0,0],"scale":[0.001,0.001,0.001],"rotation":[-0.7071067811865475,0,0,0.7071067811865476],"name":"3D Text - e","mesh":18},{"translation":[0.21804069304466248,0,0],"scale":[0.001,0.001,0.001],"rotation":[-0.7071067811865475,0,0,0.7071067811865476],"name":"3D Text - t","mesh":19},{"translation":[0.2339269235134125,0,0],"scale":[0.001,0.001,0.001],"rotation":[-0.7071067811865475,0,0,0.7071067811865476],"name":"3D Text - s","mesh":20}],"materials":[{"pbrMetallicRoughness":{"baseColorFactor":[1,1,1,1],"metallicFactor":0,"roughnessFactor":0.2},"name":"Infusion","emissiveFactor":[0,0,0],"extensions":{},"alphaMode":"OPAQUE","doubleSided":false}],"meshes":[{"primitives":[{"mode":4,"attributes":{"POSITION":1,"NORMAL":2,"TEXCOORD_0":3},"material":0,"indices":0}]},{"primitives":[{"mode":4,"attributes":{"POSITION":5,"NORMAL":6,"TEXCOORD_0":7},"material":0,"indices":4}]},{"primitives":[{"mode":4,"attributes":{"POSITION":9,"NORMAL":10,"TEXCOORD_0":11},"material":0,"indices":8}]},{"primitives":[{"mode":4,"attributes":{"POSITION":13,"NORMAL":14,"TEXCOORD_0":15},"material":0,"indices":12}]},{"primitives":[{"mode":4,"attributes":{"POSITION":13,"NORMAL":14,"TEXCOORD_0":15},"material":0,"indices":12}]},{"primitives":[{"mode":4,"attributes":{"POSITION":17,"NORMAL":18,"TEXCOORD_0":19},"material":0,"indices":16}]},{"primitives":[{"mode":4,"attributes":{"POSITION":21,"NORMAL":22,"TEXCOORD_0":23},"material":0,"indices":20}]},{"primitives":[{"mode":4,"attributes":{"POSITION":25,"NORMAL":26,"TEXCOORD_0":27},"material":0,"indices":24}]},{"primitives":[{"mode":4,"attributes":{"POSITION":9,"NORMAL":10,"TEXCOORD_0":11},"material":0,"indices":8}]},{"primitives":[{"mode":4,"attributes":{"POSITION":5,"NORMAL":6,"TEXCOORD_0":7},"material":0,"indices":4}]},{"primitives":[{"mode":4,"attributes":{"POSITION":29,"NORMAL":30,"TEXCOORD_0":31},"material":0,"indices":28}]},{"primitives":[{"mode":4,"attributes":{"POSITION":33,"NORMAL":34,"TEXCOORD_0":35},"material":0,"indices":32}]},{"primitives":[{"mode":4,"attributes":{"POSITION":9,"NORMAL":10,"TEXCOORD_0":11},"material":0,"indices":8}]},{"primitives":[{"mode":4,"attributes":{"POSITION":5,"NORMAL":6,"TEXCOORD_0":7},"material":0,"indices":4}]},{"primitives":[{"mode":4,"attributes":{"POSITION":1,"NORMAL":2,"TEXCOORD_0":3},"material":0,"indices":0}]},{"primitives":[{"mode":4,"attributes":{"POSITION":37,"NORMAL":38,"TEXCOORD_0":39},"material":0,"indices":36}]},{"primitives":[{"mode":4,"attributes":{"POSITION":41,"NORMAL":42,"TEXCOORD_0":43},"material":0,"indices":40}]},{"primitives":[{"mode":4,"attributes":{"POSITION":21,"NORMAL":22,"TEXCOORD_0":23},"material":0,"indices":20}]},{"primitives":[{"mode":4,"attributes":{"POSITION":9,"NORMAL":10,"TEXCOORD_0":11},"material":0,"indices":8}]},{"primitives":[{"mode":4,"attributes":{"POSITION":25,"NORMAL":26,"TEXCOORD_0":27},"material":0,"indices":24}]},{"primitives":[{"mode":4,"attributes":{"POSITION":13,"NORMAL":14,"TEXCOORD_0":15},"material":0,"indices":12}]}],"accessors":[{"bufferView":0,"byteOffset":0,"componentType":5125,"count":516,"type":"SCALAR"},{"bufferView":1,"byteOffset":0,"componentType":5126,"count":340,"max":[27.538999557495117,2.1855658677570914e-15,35.69300079345703],"min":[4.9070000648498535,-15,0],"type":"VEC3"},{"bufferView":2,"byteOffset":0,"componentType":5126,"count":340,"type":"VEC3"},{"bufferView":3,"byteOffset":0,"componentType":5126,"count":340,"type":"VEC2"},{"bufferView":4,"byteOffset":0,"componentType":5125,"count":432,"type":"SCALAR"},{"bufferView":5,"byteOffset":0,"componentType":5126,"count":289,"max":[19.70199966430664,1.6683363158236856e-15,27.246000289916992],"min":[4.296999931335449,-15,0],"type":"VEC3"},{"bufferView":6,"byteOffset":0,"componentType":5126,"count":289,"type":"VEC3"},{"bufferView":7,"byteOffset":0,"componentType":5126,"count":289,"type":"VEC2"},{"bufferView":8,"byteOffset":0,"componentType":5125,"count":948,"type":"SCALAR"},{"bufferView":9,"byteOffset":0,"componentType":5126,"count":630,"max":[25.43899917602539,1.6683363158236856e-15,27.246000289916992],"min":[2.808000087738037,-15,-0.4880000054836273],"type":"VEC3"},{"bufferView":10,"byteOffset":0,"componentType":5126,"count":630,"type":"VEC3"},{"bufferView":11,"byteOffset":0,"componentType":5126,"count":630,"type":"VEC2"},{"bufferView":12,"byteOffset":0,"componentType":5125,"count":1392,"type":"SCALAR"},{"bufferView":13,"byteOffset":0,"componentType":5126,"count":930,"max":[21.558000564575195,1.6683363158236856e-15,27.246000289916992],"min":[2.5880000591278076,-15,-0.4880000054836273],"type":"VEC3"},{"bufferView":14,"byteOffset":0,"componentType":5126,"count":930,"type":"VEC3"},{"bufferView":15,"byteOffset":0,"componentType":5126,"count":930,"type":"VEC2"},{"bufferView":16,"byteOffset":0,"componentType":5125,"count":132,"type":"SCALAR"},{"bufferView":17,"byteOffset":0,"componentType":5126,"count":84,"max":[24.80500030517578,2.1855658677570914e-15,35.69300079345703],"min":[4.9070000648498535,-15,0],"type":"VEC3"},{"bufferView":18,"byteOffset":0,"componentType":5126,"count":84,"type":"VEC3"},{"bufferView":19,"byteOffset":0,"componentType":5126,"count":84,"type":"VEC2"},{"bufferView":20,"byteOffset":0,"componentType":5125,"count":576,"type":"SCALAR"},{"bufferView":21,"byteOffset":0,"componentType":5126,"count":386,"max":[26.65999984741211,1.6683363158236856e-15,27.246000289916992],"min":[4.296999931335449,-15,0],"type":"VEC3"},{"bufferView":22,"byteOffset":0,"componentType":5126,"count":386,"type":"VEC3"},{"bufferView":23,"byteOffset":0,"componentType":5126,"count":386,"type":"VEC2"},{"bufferView":24,"byteOffset":0,"componentType":5125,"count":552,"type":"SCALAR"},{"bufferView":25,"byteOffset":0,"componentType":5126,"count":366,"max":[16.601999282836914,2.018156581995857e-15,32.95899963378906],"min":[0.7570000290870667,-15,-0.4880000054836273],"type":"VEC3"},{"bufferView":26,"byteOffset":0,"componentType":5126,"count":366,"type":"VEC3"},{"bufferView":27,"byteOffset":0,"componentType":5126,"count":366,"type":"VEC2"},{"bufferView":28,"byteOffset":0,"componentType":5125,"count":960,"type":"SCALAR"},{"bufferView":29,"byteOffset":0,"componentType":5126,"count":640,"max":[35.888999938964844,2.2199784870634287e-15,36.255001068115234],"min":[3.052000045776367,-15,-0.4880000054836273],"type":"VEC3"},{"bufferView":30,"byteOffset":0,"componentType":5126,"count":640,"type":"VEC3"},{"bufferView":31,"byteOffset":0,"componentType":5126,"count":640,"type":"VEC2"},{"bufferView":32,"byteOffset":0,"componentType":5125,"count":252,"type":"SCALAR"},{"bufferView":33,"byteOffset":0,"componentType":5126,"count":170,"max":[25.048999786376953,1.6384548992686853e-15,26.757999420166016],"min":[0,-15,0],"type":"VEC3"},{"bufferView":34,"byteOffset":0,"componentType":5126,"count":170,"type":"VEC3"},{"bufferView":35,"byteOffset":0,"componentType":5126,"count":170,"type":"VEC2"},{"bufferView":36,"byteOffset":0,"componentType":5125,"count":36,"type":"SCALAR"},{"bufferView":37,"byteOffset":0,"componentType":5126,"count":24,"max":[8.350000381469727,2.326094139420737e-15,37.987998962402344],"min":[4.296999931335449,-15,0],"type":"VEC3"},{"bufferView":38,"byteOffset":0,"componentType":5126,"count":24,"type":"VEC3"},{"bufferView":39,"byteOffset":0,"componentType":5126,"count":24,"type":"VEC2"},{"bufferView":40,"byteOffset":0,"componentType":5125,"count":1188,"type":"SCALAR"},{"bufferView":41,"byteOffset":0,"componentType":5126,"count":793,"max":[23.7549991607666,1.6653360192453925e-15,27.19700050354004],"min":[2.2950000762939453,-15,-0.4880000054836273],"type":"VEC3"},{"bufferView":42,"byteOffset":0,"componentType":5126,"count":793,"type":"VEC3"},{"bufferView":43,"byteOffset":0,"componentType":5126,"count":793,"type":"VEC2"}],"bufferViews":[{"buffer":0,"byteOffset":0,"byteLength":2064,"target":34963},{"buffer":0,"byteOffset":2064,"byteLength":4080,"target":34962},{"buffer":0,"byteOffset":6144,"byteLength":4080,"target":34962},{"buffer":0,"byteOffset":10224,"byteLength":2720,"target":34962},{"buffer":0,"byteOffset":12944,"byteLength":1728,"target":34963},{"buffer":0,"byteOffset":14672,"byteLength":3468,"target":34962},{"buffer":0,"byteOffset":18140,"byteLength":3468,"target":34962},{"buffer":0,"byteOffset":21608,"byteLength":2312,"target":34962},{"buffer":0,"byteOffset":23920,"byteLength":3792,"target":34963},{"buffer":0,"byteOffset":27712,"byteLength":7560,"target":34962},{"buffer":0,"byteOffset":35272,"byteLength":7560,"target":34962},{"buffer":0,"byteOffset":42832,"byteLength":5040,"target":34962},{"buffer":0,"byteOffset":47872,"byteLength":5568,"target":34963},{"buffer":0,"byteOffset":53440,"byteLength":11160,"target":34962},{"buffer":0,"byteOffset":64600,"byteLength":11160,"target":34962},{"buffer":0,"byteOffset":75760,"byteLength":7440,"target":34962},{"buffer":0,"byteOffset":83200,"byteLength":528,"target":34963},{"buffer":0,"byteOffset":83728,"byteLength":1008,"target":34962},{"buffer":0,"byteOffset":84736,"byteLength":1008,"target":34962},{"buffer":0,"byteOffset":85744,"byteLength":672,"target":34962},{"buffer":0,"byteOffset":86416,"byteLength":2304,"target":34963},{"buffer":0,"byteOffset":88720,"byteLength":4632,"target":34962},{"buffer":0,"byteOffset":93352,"byteLength":4632,"target":34962},{"buffer":0,"byteOffset":97984,"byteLength":3088,"target":34962},{"buffer":0,"byteOffset":101072,"byteLength":2208,"target":34963},{"buffer":0,"byteOffset":103280,"byteLength":4392,"target":34962},{"buffer":0,"byteOffset":107672,"byteLength":4392,"target":34962},{"buffer":0,"byteOffset":112064,"byteLength":2928,"target":34962},{"buffer":0,"byteOffset":114992,"byteLength":3840,"target":34963},{"buffer":0,"byteOffset":118832,"byteLength":7680,"target":34962},{"buffer":0,"byteOffset":126512,"byteLength":7680,"target":34962},{"buffer":0,"byteOffset":134192,"byteLength":5120,"target":34962},{"buffer":0,"byteOffset":139312,"byteLength":1008,"target":34963},{"buffer":0,"byteOffset":140320,"byteLength":2040,"target":34962},{"buffer":0,"byteOffset":142360,"byteLength":2040,"target":34962},{"buffer":0,"byteOffset":144400,"byteLength":1360,"target":34962},{"buffer":0,"byteOffset":145760,"byteLength":144,"target":34963},{"buffer":0,"byteOffset":145904,"byteLength":288,"target":34962},{"buffer":0,"byteOffset":146192,"byteLength":288,"target":34962},{"buffer":0,"byteOffset":146480,"byteLength":192,"target":34962},{"buffer":0,"byteOffset":146672,"byteLength":4752,"target":34963},{"buffer":0,"byteOffset":151424,"byteLength":9516,"target":34962},{"buffer":0,"byteOffset":160940,"byteLength":9516,"target":34962},{"buffer":0,"byteOffset":170456,"byteLength":6344,"target":34962}],"scene":0,"scenes":[{"nodes":[0,1,2,3,4,5,6,7,8,9,10,11,12,13,14,15,16,17,18,19,20],"name":"Project Name"}],"extensionsUsed":["KHR_texture_transform"],"buffers":[{"byteLength":176800,"uri":"ProjectName.bin"}]}